<svg width="106" height="24" viewBox="0 0 106 24" fill="none" xmlns="http://www.w3.org/2000/svg">
<path d="M5.856 3.6352H0.288V1.0912H14.568V3.6352H8.976V18.1792H5.856V3.6352ZM21.1209 5.7712C21.5849 5.7712 21.9849 5.8352 22.3209 5.9632L22.2969 8.6992C21.7849 8.4912 21.2569 8.3872 20.7129 8.3872C19.6889 8.3872 18.9049 8.6832 18.3609 9.2752C17.8329 9.8672 17.5689 10.6512 17.5689 11.6272V18.1792H14.5929V9.4912C14.5929 8.2112 14.5289 7.0672 14.4009 6.0592H17.2089L17.4489 8.1952C17.7529 7.4112 18.2329 6.8112 18.8889 6.3952C19.5449 5.9792 20.2889 5.7712 21.1209 5.7712ZM35.349 6.0592V18.1792H32.397V16.2352C32.029 16.9072 31.501 17.4352 30.813 17.8192C30.125 18.1872 29.341 18.3712 28.461 18.3712C27.405 18.3712 26.469 18.1152 25.653 17.6032C24.837 17.0912 24.205 16.3632 23.757 15.4192C23.309 14.4752 23.085 13.3792 23.085 12.1312C23.085 10.8832 23.309 9.7792 23.757 8.8192C24.221 7.8432 24.861 7.0912 25.677 6.5632C26.493 6.0192 27.421 5.7472 28.461 5.7472C29.341 5.7472 30.125 5.9392 30.813 6.3232C31.501 6.6912 32.029 7.2112 32.397 7.8832V6.0592H35.349ZM29.277 16.0192C30.269 16.0192 31.037 15.6752 31.581 14.9872C32.125 14.2992 32.397 13.3312 32.397 12.0832C32.397 10.8032 32.125 9.8192 31.581 9.1312C31.037 8.4432 30.261 8.0992 29.253 8.0992C28.261 8.0992 27.485 8.4592 26.925 9.1792C26.381 9.8832 26.109 10.8672 26.109 12.1312C26.109 13.3792 26.381 14.3392 26.925 15.0112C27.485 15.6832 28.269 16.0192 29.277 16.0192ZM44.3524 2.8912C43.0564 2.8912 42.4084 3.6032 42.4084 5.0272V6.0592H45.1204V8.3152H42.4084V18.1792H39.4084V8.3152H37.1044V6.0592H39.4084V4.8832C39.4084 3.4432 39.7684 2.3392 40.4884 1.5712C41.2244 0.787198 42.2724 0.395198 43.6324 0.395198C44.3844 0.395198 45.0164 0.491198 45.5284 0.683198V3.0592C45.0804 2.9472 44.6884 2.8912 44.3524 2.8912ZM58.9037 6.0592V18.1792H55.9517V16.2352C55.5837 16.9072 55.0557 17.4352 54.3677 17.8192C53.6797 18.1872 52.8957 18.3712 52.0157 18.3712C50.9597 18.3712 50.0237 18.1152 49.2077 17.6032C48.3917 17.0912 47.7597 16.3632 47.3117 15.4192C46.8637 14.4752 46.6397 13.3792 46.6397 12.1312C46.6397 10.8832 46.8637 9.7792 47.3117 8.8192C47.7757 7.8432 48.4157 7.0912 49.2317 6.5632C50.0477 6.0192 50.9757 5.7472 52.0157 5.7472C52.8957 5.7472 53.6797 5.9392 54.3677 6.3232C55.0557 6.6912 55.5837 7.2112 55.9517 7.8832V6.0592H58.9037ZM52.8317 16.0192C53.8237 16.0192 54.5917 15.6752 55.1357 14.9872C55.6797 14.2992 55.9517 13.3312 55.9517 12.0832C55.9517 10.8032 55.6797 9.8192 55.1357 9.1312C54.5917 8.4432 53.8157 8.0992 52.8077 8.0992C51.8157 8.0992 51.0397 8.4592 50.4797 9.1792C49.9357 9.8832 49.6637 10.8672 49.6637 12.1312C49.6637 13.3792 49.9357 14.3392 50.4797 15.0112C51.0397 15.6832 51.8237 16.0192 52.8317 16.0192ZM62.1711 0.515198H65.1471V18.1792H62.1711V0.515198ZM80.1409 6.0592V17.7952C80.1409 19.6832 79.6209 21.1152 78.5809 22.0912C77.5409 23.0672 76.0129 23.5552 73.9969 23.5552C72.1249 23.5552 70.4769 23.1632 69.0529 22.3792L69.5329 20.0992C71.0049 20.8672 72.4689 21.2512 73.9249 21.2512C76.0849 21.2512 77.1649 20.1792 77.1649 18.0352V15.6352C76.7969 16.2912 76.2609 16.8272 75.5569 17.2432C74.8529 17.6432 74.0609 17.8432 73.1809 17.8432C72.1249 17.8432 71.1809 17.5952 70.3489 17.0992C69.5329 16.5872 68.8929 15.8752 68.4289 14.9632C67.9809 14.0352 67.7569 12.9792 67.7569 11.7952C67.7569 10.6112 67.9809 9.5632 68.4289 8.6512C68.8929 7.7232 69.5329 7.0112 70.3489 6.5152C71.1809 6.0032 72.1249 5.7472 73.1809 5.7472C74.0769 5.7472 74.8689 5.9392 75.5569 6.3232C76.2609 6.6912 76.7969 7.2112 77.1649 7.8832V6.0592H80.1409ZM73.9729 15.4912C74.9649 15.4912 75.7409 15.1632 76.3009 14.5072C76.8769 13.8512 77.1649 12.9472 77.1649 11.7952C77.1649 10.6432 76.8849 9.7392 76.3249 9.0832C75.7649 8.4272 74.9809 8.0992 73.9729 8.0992C72.9809 8.0992 72.1969 8.4272 71.6209 9.0832C71.0609 9.7392 70.7809 10.6432 70.7809 11.7952C70.7809 12.9472 71.0609 13.8512 71.6209 14.5072C72.1969 15.1632 72.9809 15.4912 73.9729 15.4912ZM94.974 6.0592V18.1792H92.022V16.2352C91.654 16.9072 91.126 17.4352 90.438 17.8192C89.75 18.1872 88.966 18.3712 88.086 18.3712C87.03 18.3712 86.094 18.1152 85.278 17.6032C84.462 17.0912 83.83 16.3632 83.382 15.4192C82.934 14.4752 82.71 13.3792 82.71 12.1312C82.71 10.8832 82.934 9.7792 83.382 8.8192C83.846 7.8432 84.486 7.0912 85.302 6.5632C86.118 6.0192 87.046 5.7472 88.086 5.7472C88.966 5.7472 89.75 5.9392 90.438 6.3232C91.126 6.6912 91.654 7.2112 92.022 7.8832V6.0592H94.974ZM88.902 16.0192C89.894 16.0192 90.662 15.6752 91.206 14.9872C91.75 14.2992 92.022 13.3312 92.022 12.0832C92.022 10.8032 91.75 9.8192 91.206 9.1312C90.662 8.4432 89.886 8.0992 88.878 8.0992C87.886 8.0992 87.11 8.4592 86.55 9.1792C86.006 9.8832 85.734 10.8672 85.734 12.1312C85.734 13.3792 86.006 14.3392 86.55 15.0112C87.11 15.6832 87.894 16.0192 88.902 16.0192ZM104.769 5.7712C105.233 5.7712 105.633 5.8352 105.969 5.9632L105.945 8.6992C105.433 8.4912 104.905 8.3872 104.361 8.3872C103.337 8.3872 102.553 8.6832 102.009 9.2752C101.481 9.8672 101.217 10.6512 101.217 11.6272V18.1792H98.2414V9.4912C98.2414 8.2112 98.1774 7.0672 98.0494 6.0592H100.857L101.097 8.1952C101.401 7.4112 101.881 6.8112 102.537 6.3952C103.193 5.9792 103.937 5.7712 104.769 5.7712Z" fill="white"/>
</svg>
